# xmcd
#
# Track frame offsets:
#	150
#	11112
#	23840
#	38122
#	50250
#	68277
#	81820
#	97557
#	110937
#	124450
#	136787
#	150805
#	164647
#	177960
#
# Disc length: 2604 seconds
#
# Revision: 2
# Processed by: cddbd v1.5.2PL0 Copyright (c) Steve Scherf et al.
# Submitted via: EasyCDDAExtractor 11.1.0.1
#
DISCID=a60a2a0e
DTITLE=Various Artist - Mr. Music Country 1/98
DYEAR=1900
DGENRE=Country
TTITLE0=Alan Jackson - Tall, Tall Trees
TTITLE1=Brooks and Dunn - Redneck Rythm and Blues
TTITLE2=Pat Roden - Lonesome Dove
TTITLE3=Prairie Oyster - Ancient History
TTITLE4=Lee Roy Parnell - Honky Tonk Night Time Man
TTITLE5=BR5-49 - House of Gold
TTITLE6=Pam Tillis - Sunset Red and Pale Moonlight
TTITLE7=J.W.Thompson - Jesus Loves Cowboys
TTITLE8=Michelle Wright - Crank My Tractor
TTITLE9=Shane Worley - How Good Love Went Wrong
TTITLE10=Tammy Graham - Old Heartaches
TTITLE11=Cary Cooley - It's a Long Walk
TTITLE12=Becky Hobbs - Mama's Green Eyes
TTITLE13=Duane Stailey - There's a Love between Us
EXTD=
EXTT0=
EXTT1=
EXTT2=
EXTT3=
EXTT4=
EXTT5=
EXTT6=
EXTT7=
EXTT8=
EXTT9=
EXTT10=
EXTT11=
EXTT12=
EXTT13=
PLAYORDER=
